<svg version="1.1" xmlns="http://www.w3.org/2000/svg" width="768" height="768" viewBox="0 0 768 768">
    <title>beer mug</title>
    <path fill="goldenrod" d="M320 528c0 8.8-7.2 16-16 16s-16-7.2-16-16v-192c0-8.8 7.2-16 16-16s16 7.2 16 16v192z"></path>
    <path fill="goldenrod" d="M384 528c0 8.8-7.2 16-16 16s-16-7.2-16-16v-192c0-8.8 7.2-16 16-16s16 7.2 16 16v192z"></path>
    <path fill="goldenrod" d="M448 528c0 8.8-7.2 16-16 16s-16-7.2-16-16v-192c0-8.8 7.2-16 16-16s16 7.2 16 16v192z"></path>
    <path fill="goldenrod" d="M592 192h-16v-32c0-35.328-28.672-64-64-64h-288c-35.328 0-64 28.672-64 64v416c0 52.992 43.008 96 96 96h224c52.992 0 96-43.008 96-96h16c61.76 0 112-50.24 112-112v-160c0-61.76-50.24-112-112-112zM224 160h288v32h-142.208l-3.776 10.624c-5.248 14.656-21.216 23.36-35.744 20.736l-11.136-1.856-5.536 9.824c-8.544 15.2-24.48 24.672-41.6 24.672-26.464 0-48-21.536-48-48v-48zM512 576c0 17.664-14.336 32-32 32h-224c-17.664 0-32-14.336-32-32v-304.32c13.408 10.144 29.952 16.32 48 16.32 25.088 0 48.672-12.032 63.648-32 23.296 0 44.256-12.512 55.552-32h120.8v352.001zM640 464c0 26.464-21.536 48-48 48h-48v-256h48c26.464 0 48 21.536 48 48v160z"></path>
</svg>
